<svg viewBox="0 0 486 422" fill="none" xmlns="http://www.w3.org/2000/svg">
<path d="M226.931 288.427L169.275 145.359H208.969L235.875 218.39L243.674 242.782C245.743 236.573 247.074 232.471 247.591 230.512C248.885 226.484 250.215 222.418 251.694 218.39L279.006 145.359H317.887L261.044 288.427H226.968H226.931Z" fill="#54FFB1"/>
<path fill-rule="evenodd" clip-rule="evenodd" d="M335.369 100.787C316.002 70.5914 282.148 50.5967 243.6 50.5967C204.941 50.5967 170.976 70.7393 151.646 101.119L164.36 132.719C175.559 99.678 206.789 75.9135 243.637 75.9135C280.374 75.9135 311.604 99.6041 322.84 132.534L335.406 100.824L335.369 100.787Z" fill="#54FFB1"/>
<path fill-rule="evenodd" clip-rule="evenodd" d="M356.657 46.9747C327.755 17.962 287.765 0 243.6 0C199.175 0 159.001 18.1468 130.062 47.4552L140.521 73.5112C165.136 44.055 202.169 25.2799 243.563 25.2799C284.772 25.2799 321.657 43.8702 346.271 73.1046L356.62 46.9747H356.657Z" fill="#54FFB1"/>
<path d="M37.1686 343.083H53.9686L67.3126 390.123L67.8886 392.811L68.0806 391.467C68.0806 391.147 68.1446 390.859 68.2726 390.603C68.3366 390.475 68.3686 390.347 68.3686 390.219L81.9046 343.083H98.1286L75.9526 411.723H59.1526L37.1686 343.083ZM128.224 412.779C122.976 412.779 118.496 411.883 114.784 410.091C111.136 408.299 108.128 405.835 105.76 402.699C103.456 399.563 101.76 395.851 100.672 391.563C99.5839 387.211 99.0399 382.475 99.0399 377.355C99.0399 372.235 99.5839 367.531 100.672 363.243C101.76 358.891 103.456 355.179 105.76 352.107C108.128 348.971 111.136 346.539 114.784 344.811C118.496 343.083 122.976 342.219 128.224 342.219C133.472 342.219 137.92 343.083 141.568 344.811C145.28 346.539 148.288 348.971 150.592 352.107C152.96 355.179 154.656 358.891 155.68 363.243C156.768 367.531 157.312 372.235 157.312 377.355C157.312 382.475 156.768 387.211 155.68 391.563C154.656 395.851 152.96 399.563 150.592 402.699C148.288 405.835 145.28 408.299 141.568 410.091C137.92 411.883 133.472 412.779 128.224 412.779ZM128.224 399.339C132.64 399.339 135.808 397.515 137.728 393.867C139.712 390.219 140.704 384.715 140.704 377.355C140.704 369.995 139.744 364.587 137.824 361.131C135.968 357.675 132.8 355.947 128.32 355.947C123.776 355.947 120.512 357.675 118.528 361.131C116.608 364.587 115.648 369.995 115.648 377.355C115.648 384.715 116.608 390.219 118.528 393.867C120.512 397.515 123.744 399.339 128.224 399.339ZM170.231 355.083H161.111L167.351 343.083H183.095L205.847 380.715L206.423 382.347V343.083H221.399V411.723H208.631L185.591 373.803L185.111 372.363V411.723H170.231V355.083ZM247.786 356.715H231.37V343.083H280.81L278.602 349.803L276.394 356.715H263.53L263.818 359.403V411.723H247.786V356.715ZM295.166 355.083H288.35L294.59 343.179H315.71L337.214 411.723H320.702L316.862 397.995L313.118 398.283H299.774L296.51 397.995L292.574 411.723H277.118L295.166 355.083ZM313.118 384.939L306.782 362.091L300.062 384.939H313.118ZM377.993 387.147H367.913L374.249 374.859H392.873V409.611C389.161 410.891 385.577 411.723 382.121 412.107C378.729 412.555 375.753 412.779 373.193 412.779C367.561 412.779 362.665 411.915 358.505 410.187C354.345 408.459 350.889 406.059 348.137 402.987C345.385 399.915 343.337 396.235 341.993 391.947C340.649 387.659 339.977 382.955 339.977 377.835C339.977 372.715 340.681 367.979 342.089 363.627C343.497 359.275 345.545 355.531 348.233 352.395C350.985 349.195 354.377 346.731 358.409 345.003C362.441 343.211 367.049 342.315 372.233 342.315C375.241 342.315 378.121 342.539 380.873 342.987C383.689 343.435 386.825 344.363 390.281 345.771L383.753 357.771C382.537 357.259 381.065 356.875 379.337 356.619C377.609 356.299 375.753 356.139 373.769 356.139C368.073 356.139 363.753 357.931 360.809 361.515C357.929 365.099 356.489 370.539 356.489 377.835C356.489 385.131 357.929 390.475 360.809 393.867C363.689 397.259 368.041 398.955 373.865 398.955C375.401 398.955 376.777 398.827 377.993 398.571V387.147ZM403.694 343.083H444.11C443.47 345.515 442.83 347.819 442.19 349.995C441.55 352.171 440.91 354.411 440.27 356.715H419.15C419.15 356.971 419.182 357.355 419.246 357.867C419.31 358.315 419.342 358.667 419.342 358.923V369.003H438.734V382.731H419.342V395.883L419.15 398.091H444.494V411.723H403.694V343.083Z" fill="white"/>
</svg>
